<svg width="157" height="40" viewBox="0 0 157 40" fill="none" xmlns="http://www.w3.org/2000/svg">
<circle cx="77.6862" cy="9.52624" r="1.76867" fill="#E82128"/>
<path d="M76.7715 17.0887C76.7715 23.1854 71.8292 28.1276 65.7326 28.1276C59.6359 28.1276 54.6936 23.1854 54.6936 17.0887C54.6936 10.9921 59.6359 6.0498 65.7326 6.0498C71.8292 6.0498 76.7715 10.9921 76.7715 17.0887ZM59.9814 17.0887C59.9814 20.265 62.5563 22.8399 65.7326 22.8399C68.9088 22.8399 71.4837 20.265 71.4837 17.0887C71.4837 13.9124 68.9088 11.3375 65.7326 11.3375C62.5563 11.3375 59.9814 13.9124 59.9814 17.0887Z" fill="#E82128"/>
<path d="M70.1847 17.0278C70.1847 19.5203 68.1641 21.5409 65.6715 21.5409C63.179 21.5409 61.1584 19.5203 61.1584 17.0278C61.1584 14.5353 63.179 12.5146 65.6715 12.5146C68.1641 12.5146 70.1847 14.5353 70.1847 17.0278ZM63.8466 17.0278C63.8466 18.0357 64.6636 18.8528 65.6715 18.8528C66.6794 18.8528 67.4965 18.0357 67.4965 17.0278C67.4965 16.0199 66.6794 15.2028 65.6715 15.2028C64.6636 15.2028 63.8466 16.0199 63.8466 17.0278Z" fill="#E82128"/>
<path d="M60.0606 32.0312V28.2499C63.7687 29.8214 67.6841 29.6994 71.4044 28.1279V32.0312H60.0606Z" fill="#E82128"/>
<path d="M60.0606 32.0312H71.4044C71.4044 32.7049 70.8583 33.251 70.1847 33.251H61.2803C60.6067 33.251 60.0606 32.7049 60.0606 32.0312Z" fill="#E82128"/>
<path d="M70.8566 30.9711C72.9202 30.363 74.8162 29.2883 76.3981 27.8303C77.98 26.3723 79.2053 24.57 79.9793 22.5627C80.7533 20.5555 81.0553 18.3971 80.8618 16.2545C80.6684 14.1119 79.9847 12.0425 78.8637 10.2064L77.8505 10.8249C78.8766 12.5057 79.5025 14.4 79.6795 16.3612C79.8566 18.3225 79.5802 20.2983 78.8717 22.1356C78.1632 23.973 77.0416 25.6228 75.5936 26.9574C74.1456 28.2921 72.41 29.2758 70.521 29.8324L70.8566 30.9711Z" fill="#E82128"/>
<path d="M95.6386 11.2981C96.6848 12.9453 97.3749 14.6037 97.7088 16.2732V16.2398C97.8869 16.7963 97.9982 17.5198 98.0427 18.4102C97.9982 19.078 97.9759 19.5788 97.9759 19.9128L97.9425 20.447C97.9425 20.6028 97.9203 21.1259 97.8757 22.0163C97.8312 22.9067 97.7199 23.786 97.5418 24.6542C97.1189 25.9007 96.529 27.125 95.7722 28.3271C95.0376 29.5069 94.1583 30.7312 93.1343 32C91.2645 32.0445 89.7285 32.0668 88.5265 32.0668L86.1224 32.1002L83.518 32.1336C83.1173 29.2175 82.9169 25.5446 82.9169 21.1148C82.9169 19.1782 82.9281 17.7313 82.9503 16.7741C82.9726 15.9059 82.9837 14.4145 82.9837 12.2998C82.9837 11.7655 82.9614 10.9642 82.9169 9.89569L82.8835 8.89399L83.1173 8.8606C84.2971 8.54896 85.6661 8.39314 87.2243 8.39314L88.0924 8.42652H88.9939C89.2833 8.44878 89.7285 8.45991 90.3295 8.45991C90.9306 8.45991 91.3758 8.44878 91.6652 8.42652C92.4888 8.64913 93.279 9.04981 94.0359 9.62857C94.7927 10.1851 95.3937 10.8306 95.8389 11.5652L95.6386 11.2981ZM92.6001 20.5472C92.6001 20.1465 92.5556 19.7569 92.4665 19.3785C92.2884 18.4436 92.077 17.6867 91.8321 17.108C91.5872 16.507 91.2088 16.1174 90.6968 15.9393H90.7636C90.2294 15.8948 89.8287 15.8725 89.5616 15.8725C89.1164 15.8725 88.827 15.8948 88.6934 15.9393C88.738 16.7407 88.7602 17.4975 88.7602 18.2099V19.078L88.7268 19.9795C88.7046 20.4915 88.6934 21.2595 88.6934 22.2835C88.6934 23.2629 88.6823 24.0086 88.66 24.5206C88.9939 24.6542 89.2277 24.7209 89.3612 24.7209H89.7953C90.1515 24.7209 90.4075 24.6875 90.5633 24.6208C90.9194 24.5317 91.3201 24.131 91.7653 23.4187C92.3218 22.5728 92.6001 21.6157 92.6001 20.5472ZM116.522 14.3032C116.588 14.9933 116.622 15.6945 116.622 16.4068L116.588 17.0078V17.6088C116.544 18.3434 116.522 19.423 116.522 20.8477C116.522 22.4281 116.488 23.6302 116.421 24.4538L116.321 25.5557C116.21 27.3588 115.754 28.8947 114.952 30.1635C114.618 30.631 114.117 31.0428 113.45 31.399C112.782 31.7551 112.047 32.0445 111.246 32.2671C110.422 32.512 109.454 32.6344 108.341 32.6344C107.829 32.6344 107.473 32.6233 107.272 32.601C106.182 32.512 105.202 32.2783 104.334 31.8998C103.488 31.4991 102.865 30.9204 102.464 30.1635C101.93 29.1618 101.641 27.9041 101.596 26.3904L101.529 25.322C101.507 25.1439 101.496 24.7766 101.496 24.2201C101.385 22.3948 101.329 20.6473 101.329 18.9778C101.329 17.9539 101.362 16.9299 101.429 15.9059C101.496 14.7929 101.685 13.7133 101.997 12.6671C102.331 11.5986 102.832 10.6637 103.499 9.8623L104.234 9.46162C105.659 8.77156 107.217 8.42652 108.909 8.42652C109.977 8.42652 110.979 8.57122 111.914 8.8606C112.871 9.12772 113.706 9.5284 114.418 10.0626C115.197 10.775 115.709 11.4762 115.954 12.1662C116.221 12.8785 116.41 13.5909 116.522 14.3032ZM111.346 17.9427L111.213 16.2064C111.168 15.5832 111.012 15.0378 110.745 14.5703C110.5 14.0806 110.177 13.7356 109.777 13.5352C109.599 13.4684 109.421 13.4351 109.242 13.4351C108.708 13.4351 108.185 13.6131 107.673 13.9693C107.406 14.1919 107.139 14.5147 106.872 14.9376C106.627 15.3383 106.438 15.7501 106.304 16.173C106.082 17.1525 105.97 18.3991 105.97 19.9128C105.97 20.6696 105.981 21.2372 106.004 21.6157V21.5823C106.093 22.0275 106.159 22.6174 106.204 23.3519L106.237 23.8194C106.326 24.9324 106.449 25.756 106.605 26.2903V26.2569C106.805 26.7021 107.094 27.0471 107.473 27.292C107.873 27.5146 108.296 27.6259 108.742 27.6259C109.098 27.6259 109.454 27.548 109.81 27.3922C110.189 27.2141 110.511 26.9692 110.778 26.6576C111.001 26.3682 111.135 26.1233 111.179 25.923C111.246 25.7226 111.279 25.411 111.279 24.9881C111.279 24.6096 111.29 24.3314 111.313 24.1533L111.346 23.7192L111.379 23.0848V22.6174L111.413 21.9829V20.3802L111.346 18.1097V17.9427ZM133.998 25.7894C134.888 27.1473 135.601 28.2937 136.135 29.2286C136.691 30.1635 137.148 31.1096 137.504 32.0668H136.97C136.703 32.0668 136.102 32.089 135.167 32.1336C134.232 32.1781 133.486 32.2003 132.929 32.2003C132.618 32.2003 132.15 32.1781 131.527 32.1336L130.959 32.1002C129.513 28.8057 128.221 26.3348 127.086 24.6875V25.5557C127.086 26.9358 127.164 28.7166 127.32 30.8981V30.8647C127.342 31.0206 127.353 31.2877 127.353 31.6661C126.596 32.0223 125.35 32.2003 123.614 32.2003L122.812 32.167H121.043C120.798 32.167 120.675 30.1524 120.675 26.1233C120.675 22.4727 120.642 18.822 120.575 15.1713C120.508 11.4984 120.408 9.29467 120.275 8.56009L121.176 8.42652C122.512 8.24844 123.614 8.11488 124.482 8.02584C125.35 7.9368 126.24 7.89228 127.153 7.89228C128.132 7.89228 128.967 7.9368 129.657 8.02584C130.948 8.18166 132.15 8.62687 133.263 9.36145C134.399 10.096 135.3 10.9976 135.968 12.0661C136.658 13.1345 137.003 14.2364 137.003 15.3717C137.003 16.4624 136.647 17.6533 135.935 18.9444C135.489 19.7458 134.899 20.4136 134.165 20.9478C133.43 21.4821 132.551 21.8049 131.527 21.9162C132.128 22.9846 132.829 24.0977 133.631 25.2552C133.786 25.5223 133.909 25.7004 133.998 25.7894ZM129.19 17.2749C129.501 17.1859 129.746 16.9633 129.924 16.6071C130.102 16.251 130.191 15.828 130.191 15.3383C130.191 14.4256 129.969 13.8357 129.524 13.5686C129.234 13.3905 128.934 13.2792 128.622 13.2347C128.333 13.1902 127.999 13.1679 127.62 13.1679L126.185 13.4017C126.229 14.0695 126.251 14.6371 126.251 15.1046C126.251 16.3066 126.285 17.0412 126.352 17.3083C126.73 17.3528 127.197 17.3751 127.754 17.3751C128.266 17.3751 128.745 17.3417 129.19 17.2749ZM155.687 29.0283C155.687 30.1635 155.565 31.1764 155.32 32.0668C154.341 32.0668 152.894 32.089 150.979 32.1336L146.605 32.167C144.624 32.167 142.643 32.1002 140.662 31.9666C140.684 31.2543 140.651 28.4829 140.562 23.6525C140.495 20.9145 140.462 18.8109 140.462 17.3417C140.462 14.2921 140.539 11.4539 140.695 8.82721L143.634 8.72704C146.928 8.59348 149.443 8.5267 151.18 8.5267C152.671 8.5267 154.118 8.58235 155.521 8.69365C155.61 9.16111 155.654 9.70648 155.654 10.3298C155.654 10.6637 155.632 11.209 155.587 11.9659C155.543 12.6782 155.521 13.2347 155.521 13.6354C154.185 13.9248 152.693 14.0695 151.046 14.0695L146.705 14.1029C146.594 15.1491 146.539 16.0172 146.539 16.7073C146.539 17.2415 146.605 17.709 146.739 18.1097L148.943 17.8426C149.254 17.8426 149.722 17.8648 150.345 17.9093L150.779 17.9427C150.89 18.6105 150.946 19.334 150.946 20.1131L150.879 22.7843C150.167 22.9846 149.21 23.0848 148.008 23.0848L147.14 23.0514C146.984 23.0514 146.884 23.0737 146.839 23.1182L146.705 24.8545C146.705 25.7672 146.75 26.524 146.839 27.125C147.997 27.125 149.121 27.1584 150.211 27.2252C150.59 27.2475 151.057 27.2697 151.614 27.292C152.17 27.3142 152.827 27.3254 153.584 27.3254L155.621 27.2586C155.665 28.2826 155.687 28.8725 155.687 29.0283Z" fill="#E82128"/>
<path d="M15.1258 8.62687C15.1703 9.38371 15.1925 10.096 15.1925 10.7638C15.1925 12.0549 15.1146 13.2125 14.9588 14.2364C14.2242 14.1029 13.6455 14.0361 13.2225 14.0361L11.6532 14.0027C11.0744 14.0027 10.785 14.0361 10.785 14.1029C10.7405 14.4145 10.7183 15.0712 10.7183 16.0729C10.7183 18.0318 10.7962 23.3074 10.952 31.8998C10.3064 32.0111 9.54959 32.0668 8.68145 32.0668H7.71313C6.60013 32.0668 5.57616 32.1447 4.64124 32.3005C4.57446 32.1892 4.51881 31.9666 4.47428 31.6327C4.45202 31.2765 4.45202 30.9538 4.47428 30.6644V29.0283L4.50768 26.0232C4.50768 21.9718 4.41863 18.0206 4.24055 14.1696C3.99569 14.0583 3.65066 14.0027 3.20546 14.0027L1.86985 14.0361C1.11301 14.0361 0.567632 13.9804 0.23373 13.8691C0.16695 13.7356 0.1113 13.3683 0.0667795 12.7672C0.0222593 12.1662 -8.71492e-07 11.4873 -8.71492e-07 10.7304C-8.71492e-07 9.61744 0.0111292 8.81608 0.0333893 8.32635H1.46917L2.77139 8.29296H4.64124L6.57787 8.25957C9.89463 8.25957 12.5992 8.382 14.6917 8.62687H15.1258ZM33.8363 31.8998C32.9236 32.0557 31.7215 32.1336 30.2301 32.1336C29.4733 32.1336 28.7832 32.1558 28.1599 32.2003C28.0264 31.2432 27.9262 29.5514 27.8594 27.125C27.8149 25.2552 27.7147 23.8194 27.5589 22.8177L26.2901 22.7509C25.6223 22.7509 25.1103 22.7954 24.7541 22.8845C24.6873 23.53 24.654 24.1422 24.654 24.7209C24.654 25.7226 24.6651 26.4684 24.6873 26.9581V27.8262L24.7207 28.6944C24.7207 30.03 24.6651 31.0428 24.5538 31.7329C24.0418 32.0223 23.4185 32.167 22.6839 32.167C22.3278 32.167 21.8826 32.1447 21.3483 32.1002L21.0478 32.0668C20.6471 32.0223 20.38 32 20.2465 32L19.178 32.0668C19.0221 30.0634 18.8663 27.0471 18.7105 23.018C18.5547 18.989 18.4768 15.4051 18.4768 12.2664C18.4768 10.4856 18.4879 9.23902 18.5102 8.5267L22.2833 8.45991C22.862 8.45991 23.3851 8.53783 23.8526 8.69365C23.9639 9.65083 24.0418 10.7527 24.0863 11.9993L24.1197 12.8006C24.1642 13.7801 24.2199 14.6037 24.2867 15.2715C24.3534 15.9171 24.4647 16.6294 24.6206 17.4085L25.8894 17.542C26.112 17.542 26.3235 17.5198 26.5238 17.4753C26.7464 17.4307 26.9579 17.3974 27.1582 17.3751H27.225C27.3808 15.6833 27.4587 14.0472 27.4587 12.4667C27.4587 11.3092 27.4253 10.0626 27.3586 8.72704C27.8705 8.57122 28.4938 8.44878 29.2284 8.35975C29.963 8.2707 30.6753 8.22618 31.3654 8.22618C31.9664 8.22618 32.4895 8.24844 32.9347 8.29296L33.8363 31.8998ZM53.0364 29.0283C53.0364 30.1635 52.914 31.1764 52.6691 32.0668C51.6897 32.0668 50.2428 32.089 48.3284 32.1336L43.9543 32.167C41.9731 32.167 39.992 32.1002 38.0108 31.9666C38.0331 31.2543 37.9997 28.4829 37.9106 23.6525C37.8439 20.9145 37.8105 18.8109 37.8105 17.3417C37.8105 14.2921 37.8884 11.4539 38.0442 8.82721L40.9825 8.72704C44.277 8.59348 46.7924 8.5267 48.5287 8.5267C50.0202 8.5267 51.4671 8.58235 52.8695 8.69365C52.9585 9.16111 53.003 9.70648 53.003 10.3298C53.003 10.6637 52.9808 11.209 52.9362 11.9659C52.8917 12.6782 52.8695 13.2347 52.8695 13.6354C51.5338 13.9248 50.0424 14.0695 48.3952 14.0695L44.0544 14.1029C43.9431 15.1491 43.8875 16.0172 43.8875 16.7073C43.8875 17.2415 43.9543 17.709 44.0878 18.1097L46.2916 17.8426C46.6032 17.8426 47.0707 17.8648 47.694 17.9093L48.128 17.9427C48.2393 18.6105 48.295 19.334 48.295 20.1131L48.2282 22.7843C47.5159 22.9846 46.5587 23.0848 45.3567 23.0848L44.4885 23.0514C44.3327 23.0514 44.2325 23.0737 44.188 23.1182L44.0544 24.8545C44.0544 25.7672 44.099 26.524 44.188 27.125C45.3455 27.125 46.4697 27.1584 47.5604 27.2252C47.9388 27.2475 48.4063 27.2697 48.9628 27.292C49.5193 27.3142 50.176 27.3254 50.9328 27.3254L52.9696 27.2586C53.0141 28.2826 53.0364 28.8725 53.0364 29.0283Z" fill="#E82128"/>
</svg>
